<?xml version="1.0" encoding="UTF-8" standalone="no"?>
<!-- Created with Inkscape (http://www.inkscape.org/) -->

<svg
   xmlns:dc="http://purl.org/dc/elements/1.1/"
   xmlns:cc="http://creativecommons.org/ns#"
   xmlns:rdf="http://www.w3.org/1999/02/22-rdf-syntax-ns#"
   xmlns:svg="http://www.w3.org/2000/svg"
   xmlns="http://www.w3.org/2000/svg"
   xmlns:sodipodi="http://sodipodi.sourceforge.net/DTD/sodipodi-0.dtd"
   xmlns:inkscape="http://www.inkscape.org/namespaces/inkscape"
   width="210mm"
   height="297mm"
   viewBox="0 0 210 297"
   version="1.1"
   id="svg8"
   inkscape:version="0.92.1 r"
   sodipodi:docname="item01.svg">
  <defs
     id="defs2" />
  <sodipodi:namedview
     id="base"
     pagecolor="#ffffff"
     bordercolor="#666666"
     borderopacity="1.0"
     inkscape:pageopacity="0.0"
     inkscape:pageshadow="2"
     inkscape:zoom="0.35"
     inkscape:cx="400"
     inkscape:cy="560"
     inkscape:document-units="mm"
     inkscape:current-layer="layer1"
     showgrid="false"
     inkscape:window-width="1280"
     inkscape:window-height="746"
     inkscape:window-x="0"
     inkscape:window-y="26"
     inkscape:window-maximized="1" />
  <metadata
     id="metadata5">
    <rdf:RDF>
      <cc:Work
         rdf:about="">
        <dc:format>image/svg+xml</dc:format>
        <dc:type
           rdf:resource="http://purl.org/dc/dcmitype/StillImage" />
        <dc:title></dc:title>
      </cc:Work>
    </rdf:RDF>
  </metadata>
  <g
     inkscape:label="Layer 1"
     inkscape:groupmode="layer"
     id="layer1">
    <path
       style="fill:#dd4814;stroke-width:0.26458332"
       id="path58"
       d="m 270.90663,58.992637 c 0.10766,4.934725 0.32264,0.858573 -1.69447,-1.537912 -0.39224,-0.466021 0.0937,1.221354 0.0299,1.827136 -0.0206,0.195215 -0.2235,0.330843 -0.27684,0.51975 -0.0944,0.334169 0.0337,1.317099 -0.16057,1.029261 -0.66694,-0.988375 -0.9157,-2.201862 -1.37353,-3.302796 -0.32491,-0.438375 -0.80735,-1.834473 -0.97476,-1.31513 -0.33755,1.047242 1.01868,2.416976 0.34034,3.283309 -0.48178,0.615323 -0.71935,-1.797354 -1.50082,-1.801148 -0.61074,-0.003 0.12083,2.139207 -0.38161,1.79201 -8.46306,-5.84812 0.99306,-2.739102 -3.92826,-4.174128 -1.11794,1.965413 -4.44659,-2.847464 -5.63421,-1.547106 -0.78057,0.854671 0.22076,2.695697 -0.69632,3.401902 -0.71807,0.552955 -1.79734,-0.41329 -2.57039,-0.886349 -1.32077,-0.808228 -2.41668,-1.936573 -3.62502,-2.904858 -1.61387,1.094121 -3.48796,0.143954 -5.17834,0.536432 -0.88727,0.206007 -1.58186,0.929293 -2.44498,1.220317 -0.80342,0.270893 -5.16539,0.989679 -5.943,0.913246 -1.31881,-0.129625 -2.56029,-0.684943 -3.84044,-1.027414 -0.86686,0.668255 -1.56358,1.654604 -2.6006,2.004761 -1.27078,0.429091 -6.43719,-0.124706 -7.56554,-0.272386 -1.41789,-0.185576 -2.81586,-0.905237 -4.23169,-0.704559 -1.20431,0.170699 -2.1319,1.171742 -3.19785,1.757611 -1.3559,0.03554 -2.7118,0.07107 -4.0677,0.106604 -4.73742,4.068754 -7.18553,0.220585 -12.27139,1.214437 -7.19789,1.406567 0.0917,2.295067 -7.43187,3.158181 -1.58182,0.181467 -3.17301,-0.268997 -4.75951,-0.403493 -0.95011,0.182473 -7.56941,1.405552 -8.47028,1.772145 -1.327,0.540001 -2.24398,2.035201 -3.65994,2.253356 -1.75382,0.270208 -3.48562,-1.068012 -5.25021,-0.880584 -1.4496,0.153972 -2.56535,1.429888 -3.9586,1.858709 -1.4661,0.451244 -3.02617,0.504534 -4.53925,0.756801 -1.43642,0.423714 -2.88328,0.813543 -4.30927,1.271145 -1.41914,0.455404 -2.7729,1.12577 -4.22371,1.467104 -3.40285,0.800598 -5.78768,0.315555 -9.10291,1.559986 -7.86629,2.952753 0.58846,2.187789 -8.69288,2.137355 -3.38899,2.91611 -2.99124,3.476402 -7.63673,3.888004 -1.61512,0.143105 -3.25112,-0.383228 -4.86072,-0.187603 -1.40681,0.170979 -2.68058,0.933749 -4.05692,1.271424 -1.4082,0.34549 -3.03583,0.03026 -4.28047,0.77408 -1.25063,0.74739 -1.819,2.276378 -2.7285,3.414567 -2.16098,2.507853 -5.51869,0.803963 -8.01356,1.9607 -1.194474,0.553818 -1.552439,2.340976 -2.78676,2.799173 -1.414045,0.524917 -3.098369,-0.577263 -4.52419,-0.08523 -0.274492,0.09472 -5.049401,4.912151 -5.288026,5.150713 -3.229131,0.823635 -6.132195,2.476365 -8.34617,5.006816 -0.641543,0.733245 -0.760217,2.010314 -1.646484,2.414984 -1.109323,0.50652 -2.778828,-0.837377 -3.658465,0.007 -0.829426,0.79642 0.03921,2.29943 0.05881,3.44914 -0.113858,0.0895 -3.429373,2.66586 -3.512507,2.84913 -0.338177,0.7455 0.233063,1.68814 -0.05265,2.45527 -0.214083,0.5748 -2.571732,2.13122 -2.352712,3.10114 0.233214,1.03279 1.257525,1.70375 1.886286,2.55563 -7.050969,0.53158 -3.318637,-0.66543 -1.458093,2.34725 0.212387,0.3439 -0.701172,0.69358 -0.56362,1.07366 0.218448,0.6036 1.823945,0.79791 1.422114,1.2985 -2.494677,3.10782 -5.520116,-0.10549 -2.076892,2.69988 0.552929,4.68964 -0.752462,-2.89267 2.200047,2.13727 0.314923,0.5365 -0.359735,1.19107 -0.539601,1.7866 0.08948,0.59492 -0.06619,1.2848 0.268446,1.78475 0.385376,0.57576 1.142362,0.78427 1.713542,1.1764 0.349835,0.59256 0.69967,1.18513 1.049502,1.77769 0.593545,2.99098 3.095921,3.68296 5.108495,5.5114 0.76766,0.69742 1.284542,1.64955 2.083419,2.31099 0.868728,0.71926 1.957642,1.12881 2.870745,1.79084 0.992444,0.71955 1.888784,1.56311 2.833174,2.34466 6.052069,4.09552 0.2187,0.79331 7.622054,2.98694 1.415756,0.41948 2.834563,0.93142 4.080785,1.72343 1.375185,0.87395 2.145363,2.67822 3.684911,3.21182 1.69926,0.58896 3.61631,-0.33127 5.39488,-0.0648 1.68427,0.25234 3.23479,1.06668 4.85219,1.60003 1.57644,0.22903 9.38339,1.39504 10.91568,1.48773 1.96243,0.1187 3.93877,-0.17795 5.89805,-0.0152 1.90061,0.15782 3.73827,0.80605 5.63809,0.97321 1.97116,0.17343 3.95754,0.0195 5.93615,0.0451 1.96487,0.0255 3.9294,0.0721 5.89411,0.10818 1.88086,0.26959 3.74274,0.83874 5.64258,0.80876 2.06509,-0.0326 4.05069,-0.95874 6.11573,-0.99433 1.86203,-0.0321 3.67303,0.65623 5.53026,0.79362 1.88872,0.13972 3.78772,0.0189 5.68153,0.0358 7.11547,0.0636 4.02497,-0.0546 11.0188,0.47678 18.76749,2.71363 -8.77862,-0.85428 10.72596,0.24901 1.67577,0.0948 3.24209,1.23622 4.91465,1.09583 2.00898,-0.16863 3.72493,-1.64802 5.71213,-1.98784 1.61547,-0.27625 3.27511,0.14277 4.91379,0.17077 1.58173,0.027 3.16393,-0.004 4.74589,-0.006 3.72833,-0.77769 5.34404,-1.48839 9.09424,-0.93257 1.25189,0.18553 2.37147,1.13786 3.6362,1.09212 5.0091,-0.18114 3.91286,-2.61661 8.90489,-3.13593 1.12993,-0.11755 2.18351,0.6281 3.27527,0.94215 0.73928,0.82831 1.14915,2.18403 2.21783,2.48495 2.80177,0.78893 5.75451,-2.46066 8.55842,-0.0191 1.06104,0.9239 0.53888,2.79328 1.14741,4.06177 0.91079,1.89857 4.57506,5.85401 5.77645,7.23187 -4.84673,15.16514 2.2327,-5.92459 -3.75707,8.60306 -0.48975,1.18783 -0.14763,2.71381 -0.915,3.74431 -0.87902,1.18042 -2.53431,1.51465 -3.68471,2.43261 -0.97519,0.77815 -1.76803,1.76078 -2.66163,2.63142 -0.89534,0.87235 -1.80335,1.7316 -2.70503,2.5974 -0.82676,0.93805 -1.35132,2.27666 -2.4803,2.81416 -1.58569,0.75494 -3.63326,0.051 -5.20085,0.8428 -1.1839,0.59802 -1.43611,2.32546 -2.53672,3.06567 -1.30363,0.87676 -3.07762,0.81275 -4.42682,1.61763 -1.21407,0.72428 -2.0255,1.97703 -3.11295,2.88034 -1.13126,0.93971 -2.35605,1.76076 -3.53407,2.64113 -3.07238,1.38811 -5.62833,2.42616 -8.5122,4.19383 -1.33287,0.81698 -2.4242,2.03493 -3.84712,2.68245 -1.60112,0.72861 -3.49675,0.64456 -5.09221,1.38548 -1.45248,0.67452 -2.54439,1.95482 -3.90823,2.79424 -1.40374,0.86398 -2.91687,1.5361 -4.37531,2.30415 -8.40454,4.69759 -0.0366,0.38941 -9.27054,4.01556 -3.13231,1.23005 -6.04598,2.97213 -9.1714,4.21957 -8.21474,3.27872 -1.68955,-0.16435 -9.2161,4.23769 -1.64946,0.52656 -3.29892,1.05313 -4.94837,1.5797 -1.78412,0.28878 -3.61352,0.37345 -5.35235,0.86635 -12.888,3.65329 3.72217,0.47567 -9.61549,3.39961 -7.9418,1.74104 -2.77165,-0.79331 -9.44862,3.53148 -1.61839,0.47194 -3.18427,1.19212 -4.85516,1.41583 -1.82153,0.24387 -3.69649,-0.30469 -5.51327,-0.0277 -5.95359,0.9078 -3.46281,2.031 -9.04774,3.74652 -1.60797,0.49392 -3.35018,0.36389 -4.99587,0.71208 -1.58009,0.33431 -3.10595,0.88709 -4.65893,1.33063 -6.39594,0.19687 -3.71336,-0.31086 -9.619682,1.47505 -1.47709,0.44663 -2.977365,0.83043 -4.417251,1.38541 -2.323793,0.89566 -5.724512,3.10324 -8.400137,3.06135 -1.724059,-0.027 -3.33729,-0.86886 -5.005938,-1.30328 -1.587391,1.42319 -4.267898,4.37681 -6.748179,4.58471 -1.409684,0.11816 -2.705711,-1.13511 -4.116554,-1.03174 -2.224884,0.16303 -3.79303,2.69626 -5.573348,3.56561 -0.823822,0.40229 -1.794988,0.3743 -2.692482,0.56144 -2.532842,0.52478 -5.065683,1.04955 -7.598523,1.57433 -0.743826,-0.0392 -1.501878,-0.26772 -2.231475,-0.11772 -1.446657,0.29744 -3.059401,1.75159 -4.592574,1.88763 -0.682268,0.0605 -1.320831,-0.42677 -2.005457,-0.44782 -1.222459,-0.0376 -2.439262,0.18244 -3.658891,0.27367 -1.858206,-1.79552 -4.751498,-2.93721 -5.574617,-5.38655 -2.030291,-6.04151 -2.428669,-15.74226 3.331117,-20.5278 1.161603,-0.96512 3.034065,0.0383 4.526606,-0.19217 5.733123,-0.88526 -1.413939,-1.27801 4.9882,-0.55461 0.538025,-0.707 0.743945,-2.30042 1.614072,-2.121 1.723107,0.35532 2.513663,2.57846 4.117001,3.30278 0.868627,0.39241 1.903579,-0.10195 2.855367,-0.15293 0.908588,-0.43164 1.803228,-1.69589 2.725762,-1.29492 11.12308,4.83449 0.434729,5.53339 8.895151,4.22646 1.623729,0.68406 3.109979,2.00141 4.871186,2.05217 1.39062,0.0401 2.387552,-1.60067 3.763917,-1.80329 5.356214,-0.78848 5.300244,1.86603 10.722658,2.25435 1.720839,0.12324 3.364655,-0.84485 5.086125,-0.95896 1.979734,-0.13123 3.965257,0.15171 5.947883,0.22756 1.843863,-0.5647 3.623953,-1.41188 5.531583,-1.69408 2.1149,-0.31287 4.303,0.26934 6.41333,-0.073 2.01067,-0.32617 3.83147,-1.40477 5.80502,-1.90902 2.03356,-0.51958 4.13155,-0.74416 6.1897,-1.15567 14.58909,-2.91697 -2.31686,0.23572 12.3913,-2.45231 2.02528,-0.47915 4.05097,-0.95657 6.07584,-1.43745 2.01133,-0.47767 4.00787,-1.02172 6.03276,-1.43823 4.33207,-0.89107 7.90543,-1.17499 12.18956,-2.29694 1.92378,-0.50381 3.77304,-1.25975 5.67566,-1.83835 1.89531,-0.57637 3.81085,-1.08401 5.71628,-1.62602 1.82103,-0.61075 9.17371,-3.09856 11.03585,-3.63631 1.86594,-0.53884 3.7972,-0.84419 5.6461,-1.43887 0.0199,-0.006 10.33304,-4.06956 10.38808,-4.0959 1.61815,-0.77437 3.1154,-1.77949 4.6731,-2.66923 8.65768,-2.13438 2.57088,0.0759 9.73059,-4.36315 1.45956,-0.90494 3.1592,-1.41479 4.53916,-2.43701 1.34475,-0.99615 2.16094,-2.61538 3.54713,-3.55302 1.40516,-0.95047 3.13848,-1.2921 4.67591,-2.00917 1.49845,-0.69887 2.95156,-1.49108 4.42734,-2.23662 3.85796,-7.35363 0.0999,-2.2026 6.49996,-6.67551 1.22046,-0.85296 2.15348,-2.0626 3.31635,-2.99255 1.1567,-0.925 2.7191,-1.3945 3.62996,-2.56237 4.95291,-6.35051 -3.12143,-3.12845 6.75638,-5.223 0.93094,-8.41855 -0.80703,-1.35777 3.28273,-7.44093 1.42524,-2.11993 1.62227,-4.91071 3.04406,-7.03296 8.74204,-13.04899 -2.99186,7.37766 4.39757,-5.88719 6.09486,-5.55164 0.51789,0.80612 2.81698,-6.36472 0.35742,-1.11481 1.59558,-1.75282 2.12235,-2.79831 1.00511,-1.99485 0.95579,-4.33057 1.24927,-6.46302 0.14531,-1.05564 0.352,-2.1019 0.528,-3.15286 -0.0349,-1.077 -0.13668,-2.15391 -0.1048,-3.23101 0.0301,-1.01791 -0.007,-2.06738 0.29046,-3.04123 0.96776,-3.16495 2.36635,-2.34712 1.81769,-5.88948 -1.03378,-6.67454 -1.9902,0.5028 -0.6277,-5.91929 -0.63132,-0.91916 -1.92479,-1.64281 -1.89397,-2.75747 0.0332,-1.20084 1.69386,-1.81596 2.05211,-2.9626 0.98171,-3.14221 -1.13744,-3.01642 -2.43541,-5.26617 -0.44974,-0.77956 -0.3978,-1.76162 -0.71775,-2.60283 -0.32118,-0.84449 -0.79804,-1.62123 -1.19706,-2.43185 -0.53893,-3.80789 0.33119,-1.80625 -2.61307,-4.54921 -0.64362,-0.599623 -1.2109,-1.277485 -1.84976,-1.882185 -0.61399,-0.581152 -1.9188,-0.827638 -1.90622,-1.67295 0.0198,-1.327602 2.84325,-2.443821 1.98255,-3.454818 -1.04731,-1.230201 -3.23069,0.06087 -4.84603,0.0913 3.31422,-6.680639 1.79012,-1.426808 -3.23794,-2.185776 -0.66346,-0.100147 0.0337,-1.36149 -0.14758,-2.007507 -0.15859,-0.5651 -0.32936,-1.26936 -0.84874,-1.542738 -0.65405,-0.344268 -1.48374,0.02808 -2.21626,-0.07055 -0.58523,-0.0788 -1.14082,-0.305499 -1.71124,-0.458251 -0.49679,-2.822453 0.33881,-2.518055 -2.56872,-2.086554 -0.73508,0.109093 -1.48466,0.700662 -2.18376,0.44867 -0.64613,-0.232897 -0.52002,-1.701911 -1.20612,-1.670561 -1.12012,0.05118 -1.79494,1.370973 -2.80689,1.85393 -0.67996,0.324512 -1.46422,0.355912 -2.19632,0.533866 1.93677,0.326123 -4.29451,-3.600035 -3.24772,-2.66864 0.93674,0.833482 2.5822,1.001961 3.0867,2.149856 0.26837,0.61061 -0.9679,1.171482 -1.63465,1.153993 -0.89022,-0.02336 -1.5446,-0.892797 -2.35649,-1.258681 -0.72991,-0.328935 -1.50487,-0.547032 -2.2573,-0.820547 -2.10627,4.965229 0.45198,1.069464 -4.06628,-0.312796 -0.40177,-0.122912 -2.19295,2.922984 -2.39589,2.973806 -0.75043,0.187917 -1.65981,-1.252212 -2.21002,-0.708414 -0.71355,0.705233 -0.0775,2.005002 -0.11619,3.007505 -0.29952,-0.12124 -3.40698,-1.617271 -4.13069,-1.125887 -0.49591,0.336722 -0.20925,1.186458 -0.41285,1.750251 -0.68088,1.885482 -1.38454,1.892969 -3.18499,1.946375 -0.30724,0.237094 -0.56681,0.554289 -0.92173,0.711277 -0.72624,0.321236 -2.02497,-0.05861 -1.8667,1.34651 0.0723,0.641837 1.06068,1.191495 0.78059,1.773502 -0.26029,0.540866 -1.20854,0.100785 -1.7763,0.295537 -0.47442,0.162732 -0.86601,0.506222 -1.29901,0.759333 0.27195,0.597889 0.65865,1.155927 0.81586,1.793668 0.84249,3.417696 -3.30018,1.634106 -4.56823,3.598116 -0.35893,0.55592 0.24168,1.30118 0.36252,1.95177 -0.51462,0.53172 -1.02924,1.06344 -1.54386,1.59517 0.67448,0.79035 1.83954,1.34844 2.02343,2.37107 0.12797,0.71163 -0.92999,1.11809 -1.28248,1.74939 -0.33405,0.5983 -0.55855,1.25506 -0.76064,1.90982 -0.20143,0.65264 -0.29737,1.33329 -0.44606,1.99993 0.27379,0.72264 1.0147,1.41972 0.82136,2.16792 -0.22435,0.86823 -1.25269,1.28351 -1.87904,1.92527 -1.40343,1.84601 1.32198,2.92536 1.17412,4.45343 -0.0837,0.86526 -1.56819,1.19615 -1.59266,2.06512 -0.0252,0.89289 1.24793,1.37478 1.4714,2.23961 0.33131,1.28212 -0.87514,3.15449 -1.37604,4.14207 -0.81051,2.01745 -1.17205,1.90358 -0.47604,4.03942 0.22783,0.69915 0.98475,1.24753 0.96719,1.98265 -0.0175,0.73107 -0.80789,1.23422 -1.06045,1.9205 -0.89114,2.42154 -0.29894,1.95339 1.59769,3.70321 -0.90356,0.63552 -2.2358,0.90917 -2.71068,1.90656 -0.2832,0.59478 0.61688,1.16731 0.98795,1.71163 1.20396,1.76605 1.31101,1.36476 2.35826,3.15516 0.32918,0.56276 1.05886,2.35448 1.31621,2.96744 -1.7442,3.3456 -0.69707,0.1348 0.0433,3.02893 0.12787,0.49988 -0.28507,1.03239 -0.17956,1.53745 0.21547,1.03147 1.28063,1.63834 1.83133,2.41366 0.2536,0.35703 0.38634,0.78606 0.57951,1.17909 0.46583,0.25961 0.93166,0.51922 1.39749,0.77883 0.25643,0.2785 0.45886,0.61884 0.76931,0.8355 0.34508,0.24084 1.08685,0.0929 1.15571,0.508 0.092,0.55457 -0.70019,0.92184 -0.82771,1.46932 -0.84606,3.63221 3.56018,-3.71644 -1.14553,2.98342 0.24543,1.49511 3.86769,-1.81902 4.41846,-0.44502 0.30268,0.75511 -1.35896,1.41253 -1.09391,2.18166 0.19735,0.57266 1.23902,-0.27704 1.81493,-0.0894 2.87684,0.93732 -5.03717,3.88873 3.60814,-0.7402 0.43703,1.59312 -1.12658,3.47401 0.9305,4.2596 0.49592,0.18939 1.26986,-0.24134 1.58137,0.18851 0.47222,0.65164 -0.51259,2.37875 0.29196,2.39654 1.33265,0.0295 2.17239,-1.54533 3.25858,-2.318 1.71467,3.67967 -0.33467,0.86144 3.00385,1.67588 0.60321,0.14715 0.93246,0.84513 1.49076,1.11683 0.30643,0.14913 3.56622,0.96387 3.86152,0.9247 0.93501,-0.12399 1.75849,-0.68278 2.63773,-1.02417 0.61859,0.65715 2.19626,2.60898 3.29847,2.72582 0.85816,0.091 1.65868,-0.48527 2.50514,-0.65325 0.41479,-0.0823 4.24031,-0.58447 4.70134,-0.48034 0.68075,0.15377 1.18959,0.73015 1.78439,1.09522 1.37172,0.32104 2.92315,0.83629 4.36831,0.52987 1.04615,-0.22182 1.92282,-1.24776 2.98905,-1.16542 0.76704,0.0592 1.15361,1.01815 1.72823,1.52968 2.34861,2.09074 1.00917,1.00896 3.54004,2.88882 0.61276,0.49389 1.22552,0.98778 1.83828,1.48167 0.81724,0.27844 1.76522,0.31173 2.45172,0.83529 0.67731,0.51657 0.68173,1.70508 1.42494,2.12129 0.96856,0.54241 2.51537,-0.27662 3.2896,0.51893 4.81959,4.95245 -7.27954,3.0504 5.28809,3.32958 1.69796,2.14917 -4.44579,5.52125 -2.95169,7.90392 0.77028,1.22842 3.04771,0.33078 4.16481,1.25512 2.57304,2.12906 -1.74054,4.2764 -1.58041,5.74599 0.12462,1.1438 1.7604,1.48196 2.64059,2.22294 0.0558,0.93962 0.1116,1.87924 0.1674,2.81887 -0.65108,0.98653 -2.0075,1.77883 -1.9532,2.95959 0.0569,1.23905 2.06713,1.75148 2.22631,2.98157 0.14075,1.08781 -1.28426,1.86672 -1.45878,2.94963 -1.04453,6.48127 3.00706,-0.16077 -1.65111,5.88763 -0.80404,0.84802 -1.8651,1.51141 -2.41213,2.54405 -0.46662,0.88083 -0.23077,1.98826 -0.49763,2.94866 -0.2723,0.97996 -0.77094,1.88325 -1.11138,2.84167 -0.34406,0.96858 -0.48477,2.01549 -0.94112,2.9365 -0.47858,0.96588 -1.22251,1.77577 -1.83376,2.66366 -0.42227,0.99951 -0.84454,1.99902 -1.26681,2.99853 -1.25304,0.5787 -2.71266,0.83613 -3.7591,1.73611 -0.83945,0.72196 -1.02114,1.96909 -1.62679,2.89596 -0.62211,0.95207 -1.24779,1.92083 -2.04845,2.72854 -0.88023,0.88798 -4.85024,3.52609 -5.6514,4.52028 -0.77711,0.96435 -1.14391,2.19702 -1.71587,3.29553 -9.46138,2.555 0.65111,-0.58436 -7.45624,3.09862 -12.92671,5.87232 4.69776,-3.29761 -7.33835,3.09377 -1.14994,0.61063 -2.20838,1.42806 -3.44006,1.8502 -1.34718,0.46173 -2.80167,0.51279 -4.20251,0.76917 -3.025,-0.19254 -3.8521,4.09721 -6.44057,4.51951 -1.78823,0.29173 -3.53127,-1.48304 -5.31241,-1.15075 -1.35699,0.25318 -1.7641,2.46149 -3.11934,2.72386 -13.90414,2.69176 2.15202,-5.15369 -8.71112,0.84695 -1.45425,0.11152 -2.90621,0.25829 -4.36273,0.33457 -1.47058,0.077 -2.95205,-0.034 -4.416,0.12523 -7.30877,0.7951 -0.97616,0.90434 -8.41403,1.39522 -7.80737,0.51528 -1.24885,-0.9236 -8.63666,1.15613 -3.5112,-0.71234 -7.26364,-1.79806 -10.93172,-1.55557 -1.6524,0.10925 -3.24089,0.99081 -4.89212,0.86508 -1.47995,-0.11268 -2.73945,-1.16795 -4.17226,-1.55527 -1.46135,-0.39502 -2.98821,-0.4899 -4.47359,-0.78182 -1.49636,-0.29408 -2.97979,-0.65053 -4.46968,-0.97578 -1.41891,-0.52525 -2.78207,-1.2373 -4.25674,-1.57575 -1.57065,-0.36047 -3.23845,-0.13968 -4.80804,-0.50475 -3.0395,-0.70694 -5.73882,-2.54029 -8.77417,-3.26488 -10.14454,-2.4217 -0.32808,1.57406 -9.50923,-2.66896 -1.28611,-0.96544 -2.44245,-2.13378 -3.85832,-2.89632 -1.4921,-0.8036 -3.33062,-0.86198 -4.77277,-1.75214 -1.38853,-0.85706 -2.35266,-2.26179 -3.54131,-3.37969 -1.18543,-1.11487 -2.24855,-2.38386 -3.58074,-3.31844 -10.277487,-7.21004 0.84896,2.74277 -8.123474,-5.78703 -9.175972,-7.31941 0.811022,1.47844 -6.420456,-7.65834 -1.072382,-1.35492 -2.675355,-2.20452 -3.847221,-3.47438 -0.459881,-0.49834 -5.92596,-7.76294 -6.216653,-8.33492 -0.799412,-1.57295 -1.090136,-3.35627 -1.635204,-5.03441 -2.437366,-4.6963 -4.58542,-9.66925 -5.530718,-14.91355 -0.314748,-1.74615 -0.21086,-3.551 -0.52909,-5.29652 -0.134207,-0.73615 -2.585834,-9.46679 -2.781771,-10.16967 0.271251,-6.47123 0.390851,-3.90659 -0.239101,-10.31235 -0.166971,-1.69786 -0.57531,-3.38316 -0.545854,-5.08896 0.02915,-1.68795 0.624578,-3.32764 0.720304,-5.01313 1.146548,-20.18814 -1.646925,10.02712 0.33654,-9.90395 -0.116647,-2.01738 -0.605811,-7.73661 -0.09897,-9.7829 0.396563,-1.60106 1.712463,-2.87249 2.121763,-4.47034 0.390356,-1.5239 0.227817,-3.14057 0.230783,-4.71367 0.003,-1.6091 -0.718712,-3.29512 -0.212794,-4.82263 0.52089,-1.57272 2.064972,-2.59133 3.097458,-3.88699 3.158631,-3.75186 1.014677,-9.18421 4.253027,-12.88965 1.112152,-1.27256 2.935946,-1.69926 4.259312,-2.75045 14.776969,-11.73777 -8.69906,5.30694 7.026323,-5.90555 10.608106,-6.9386 -2.909959,1.60704 8.473797,-4.62159 1.419619,-0.77674 2.554529,-2.06802 4.059869,-2.66177 1.65863,-0.6542 3.51534,-0.60957 5.25249,-1.01124 1.68774,-0.39025 3.28891,-1.21589 5.01494,-1.36283 1.96848,-0.16758 3.94067,0.28846 5.91101,0.43269 1.73675,-0.28388 3.50909,-0.40116 5.21026,-0.85165 1.64572,-0.4358 3.12487,-1.40313 4.78176,-1.79434 1.73167,-0.40886 3.54217,-0.34909 5.30543,-0.58735 1.72702,-0.233363 3.42168,-0.741947 5.16233,-0.827095 11.55178,-0.56509 -0.16932,1.585275 10.54003,-0.810403 4.96518,-2.221611 10.12527,-2.27969 15.44638,-2.007108 1.83508,0.09401 3.66002,0.492365 5.49619,0.423034 0.48356,-0.01826 9.56308,-1.598054 10.0586,-1.68339 11.86048,-0.549765 -1.46054,0.131791 10.26266,-0.665216 1.70344,-0.11581 3.4256,-0.02193 5.11511,-0.268308 1.6331,-0.238154 3.17288,-0.960398 4.80873,-1.178878 1.59947,-0.213624 8.68141,-0.135041 10.27162,-0.129746 15.41379,1.448832 -4.19799,0.722257 9.49553,-2.285045 1.74209,-0.38259 3.52257,0.739196 5.30562,0.694137 11.72969,-0.296426 -2.17338,-1.434124 9.26923,-2.301049 1.72379,-0.130599 3.43273,0.412765 5.1491,0.619148 4.73099,0.224671 9.25489,-1.077052 13.84621,-1.907786 1.48981,-0.26956 3.02257,-0.300426 4.49463,-0.654306 1.42604,-0.342816 2.70488,-1.261825 4.16224,-1.426784 1.5822,-0.179089 3.17245,0.278013 4.75865,0.417017 6.54135,-3.53551 0.89811,-1.360194 8.4201,-1.749139 1.40769,-0.07279 2.78493,-0.450003 4.15936,-0.762844 1.34078,-0.305186 2.60427,-1.129194 3.97878,-1.08953 1.67333,0.04829 3.21386,1.74598 4.83894,1.343988 1.44242,-0.356815 2.00808,-2.19074 3.01214,-3.286109 15.55586,-2.716866 -7.80404,1.226539 7.96849,-0.977588 1.2705,-0.177549 2.48335,-0.735658 3.76465,-0.799465 1.40017,-0.06973 2.78725,0.492032 4.18639,0.403519 1.69527,-0.107252 5.40502,-1.53306 6.98871,-2.090616 1.01256,-0.201748 5.93526,-1.078574 6.89552,-1.675792 1.04645,-0.650824 1.39131,-2.2299 2.53357,-2.692326 1.15395,-0.467153 2.48663,0.167386 3.73149,0.156039 3.91152,-0.03566 3.02604,-0.03951 6.52428,-1.370624 0,0 6.08894,13.080653 6.08894,13.080653 v 0 c -3.88432,0.125868 -3.25295,-0.0038 -7.0744,0.55045 -1.42809,0.207113 -5.67651,1.04839 -7.11362,0.938061 -1.45727,-0.111873 -2.82112,-1.104212 -4.27635,-0.968499 -1.19425,0.111376 -2.1267,1.109874 -3.19006,1.664811 -1.2483,0.180028 -2.54333,0.156721 -3.74488,0.540084 -1.18764,0.378931 -2.08293,1.591386 -3.32341,1.71514 -1.51624,0.151265 -2.95941,-0.771753 -4.47415,-0.937231 -4.04323,-0.441703 -8.14539,0.318368 -11.92668,1.696082 -5.69092,0.727478 -2.75336,0.783265 -8.8066,-0.366871 -1.37417,0.117388 -2.45134,1.368991 -3.80773,1.61875 -1.47695,0.271968 -3.00725,-0.204465 -4.50455,-0.08814 -2.9018,0.225441 -5.68095,1.411915 -8.63092,1.322327 -1.54954,-0.0084 -3.10134,-0.109839 -4.64857,-0.02532 -3.04206,0.166196 -6.04566,0.804029 -9.08726,0.978485 -5.17629,0.296891 -4.53193,0.04281 -9.78564,-0.405292 -1.67226,-0.142631 -3.34771,-0.245017 -5.02157,-0.367527 -7.59737,3.296018 -0.90104,1.247074 -9.52403,1.277027 -6.25891,0.02175 -3.43454,1.240404 -9.70877,1.302986 -3.54121,0.03532 -7.01921,-1.207561 -10.576,-1.010388 -3.20737,0.685342 -6.47758,1.503442 -9.76669,1.724242 -5.86319,0.393597 -4.47016,-0.549797 -10.2673,0.375137 -1.64136,0.261876 -3.1793,1.181748 -4.84137,1.193643 -1.90521,0.01363 -3.73679,-0.745923 -5.60518,-1.118883 -4.1992,1.390317 -5.36809,2.150687 -9.90218,2.127364 -1.85933,-0.0096 -3.68827,-0.696029 -5.54531,-0.603417 -1.69701,0.08463 -3.28936,0.884894 -4.97102,1.127877 -4.42864,0.6399 -6.2857,0.281397 -10.75892,-0.0049 -15.13833,5.843354 7.07704,-1.812899 -10.52547,0.821997 -1.68587,0.252357 -2.81894,2.017657 -4.44538,2.528117 -1.69155,0.53089 -3.53136,0.32352 -5.29242,0.5281 -6.50004,0.75514 -3.99394,0.2024 -9.93525,2.55031 -6.14185,2.49534 -2.98953,1.47839 -9.45878,3.04516 -1.45765,0.54197 -2.6664,1.64613 -4.13191,2.16647 -1.54402,0.54822 -3.44275,0.10698 -4.81076,1.0087 -1.23502,0.81406 -1.24829,2.79902 -2.390979,3.7383 -1.125416,0.92509 -2.717261,1.05161 -4.075891,1.57741 -0.63024,1.1661 -1.077611,2.45147 -1.890718,3.49829 -3.012238,3.87806 -2.823053,1.29352 -5.447728,5.54212 -0.671081,1.0863 -0.731562,2.48213 -1.419291,3.55795 -1.538634,2.40691 -4.338384,3.84422 -5.579555,6.50493 0.968185,9.29658 1.226545,-0.0624 -3.513058,8.03309 -0.758113,1.29489 -0.42179,2.97195 -0.689853,4.4483 -0.273275,1.50506 -0.449797,3.04189 -0.933635,4.49302 -4.999347,14.99406 0.591314,-6.07558 -3.225274,9.14185 -0.902157,5.1929 -1.093321,4.4451 -0.72051,9.75588 0.116948,1.66595 0.631293,3.30714 0.580353,4.9764 -0.05152,1.6882 -0.780193,3.3034 -0.884465,4.98917 -0.770298,12.453 1.775483,-2.54384 -0.770467,10.22828 0.672216,1.65029 1.721662,3.1935 2.016649,4.95086 2.56921,15.30586 -3.561022,-4.64917 0.654656,10.4711 1.467231,5.26249 2.187948,4.67544 3.990924,9.78808 0.5831,1.65348 0.917776,3.38433 1.376664,5.07649 3.352581,3.3286 4.399426,3.90608 6.735247,7.97639 0.839539,1.46295 1.079981,3.27109 2.133277,4.58851 1.073973,1.34328 2.702124,2.12858 4.070292,3.17066 5.656077,4.30801 2.532094,1.4499 7.385201,6.47702 0.6062,0.35913 7.828411,4.60696 8.433071,5.08611 1.23751,0.98061 1.99325,2.52539 3.32492,3.37371 1.39749,0.89026 3.17767,0.98636 4.6652,1.71628 2.7775,1.36289 4.98559,3.76165 8.06729,4.58983 11.24586,3.14747 -1.75878,-0.84634 8.56993,3.40605 6.07247,2.50007 2.7048,0.48012 9.20098,1.61475 1.91278,0.33409 6.56465,2.14656 8.3773,2.81677 12.26768,1.9045 -4.06256,-0.0936 9.38093,-0.37438 1.42813,-0.0298 2.77721,0.70609 4.19639,0.86855 1.45299,0.16631 2.93805,-0.0921 4.38597,0.11385 12.85621,1.82816 -2.70904,0.66198 6.91416,1.26611 4.55002,-1.57089 3.12234,-1.34779 7.9082,-1.92313 1.36433,-0.16401 2.73596,-0.52302 4.1038,-0.39155 1.63162,0.15679 3.11903,1.2845 4.75765,1.24322 1.46691,-0.037 5.91942,-2.68555 7.11452,-3.34517 1.11015,-0.63287 2.11969,-1.48991 3.33044,-1.89862 1.25191,-0.42259 2.61852,-0.35655 3.92549,-0.55071 1.29358,-0.19218 2.60754,-0.28962 3.8759,-0.60826 4.73931,-1.1906 2.37834,-1.08816 6.69026,-3.0503 1.12028,-0.50979 2.32215,-0.81684 3.48322,-1.22526 1.47035,0.0232 3.1523,0.82994 4.41106,0.0697 1.13332,-0.6845 0.63102,-2.69727 1.5374,-3.66238 0.79107,-0.84232 2.26573,-0.66773 3.1858,-1.36684 0.86766,-0.65929 1.04595,-2.06807 2.00808,-2.57973 1.14504,-0.60892 2.73204,0.11425 3.85335,-0.53733 0.90171,-0.52397 1.0987,-1.77297 1.64805,-2.65945 1.1244,-3.09316 1.66995,-5.23038 4.5505,-7.14121 0.8258,-0.54781 1.7378,-0.95523 2.63202,-1.38232 0.95927,-0.45816 2.40075,-0.34668 2.9247,-1.27165 0.50938,-0.89927 -0.31216,-2.04333 -0.46823,-3.06499 0.43664,-0.67645 1.11845,-1.2473 1.30993,-2.02933 0.19091,-0.77965 -0.65688,-4.09073 0.10735,-4.94057 0.74479,-0.82823 2.23329,-0.60955 3.04844,-1.36864 2.05765,-1.91614 -0.25,-3.37911 -1.30277,-4.7221 0.61063,-0.52118 1.33791,-0.93069 1.83187,-1.56353 0.61632,-0.78961 1.23482,-2.50439 0.46965,-3.48948 -0.54127,-0.69686 -2.62063,-0.72167 -2.18763,-1.4905 1.81253,-3.21829 7.82011,-0.39809 0.81489,-2.77146 0.41612,-0.53797 1.4888,-0.97771 1.24836,-1.61391 -0.27423,-0.72562 -1.53235,-0.3954 -2.17301,-0.83273 -0.34804,-0.23758 -0.52031,-0.68555 -0.64213,-1.08895 -0.10464,-0.34654 0.30953,-0.92472 -0.0146,-1.0859 -1.7058,-0.84824 -2.63776,1.35971 -1.23355,-0.95688 -5.04232,1.96314 -0.53204,0.63609 -0.62037,-1.14627 -0.009,-0.17462 -3.0741,1.41224 -3.16818,1.32271 -0.70183,-0.66792 1.37309,-2.17696 0.0367,-2.90634 -0.18304,-3.52851 0.61033,-1.37276 -1.78403,-1.82789 -0.46713,-0.0888 -0.74839,-0.90145 -1.20392,-0.76513 -1.05007,0.31425 -1.57203,1.9738 -2.66696,1.92355 -1.31174,-0.0602 -0.0493,-3.7027 -2.22928,-3.24789 -0.63624,-0.0863 -1.29639,-0.45187 -1.90873,-0.25879 -0.39377,0.12416 -3.58468,3.12951 -4.85439,1.46898 -0.70827,-0.92628 0.30918,-3.0181 -0.78982,-3.4078 -1.165,-0.41309 -2.0703,1.35105 -3.10545,2.02657 -0.66336,-0.27233 -1.32672,-0.54466 -1.99009,-0.817 -0.5047,-0.67168 -0.69806,-1.81513 -1.5141,-2.01505 -0.97341,-0.23847 -1.88633,0.68507 -2.85427,0.94485 -5.45858,1.46498 -0.49957,0.52799 -4.79692,-0.80004 -4.30765,-1.33121 -1.39753,2.01728 -4.03705,-2.36931 -0.82837,-0.10908 -1.65106,-0.37697 -2.4851,-0.32724 -1.11069,0.0662 -2.16887,0.83021 -3.27,0.67035 -0.79474,-0.11538 -1.15785,-1.25007 -1.94121,-1.42691 -1.04678,-0.23629 -2.33042,0.88137 -3.20846,0.26443 -1.42172,-0.99894 0.44389,-4.33836 -2.29027,-4.68266 -0.41261,-0.13741 -4.39906,-1.40848 -4.76059,-1.75159 -0.55151,-0.52342 -0.47195,-1.46285 -0.87981,-2.10456 -1.17615,-1.85052 -3.40311,-2.76158 -4.57117,-4.62702 -0.83321,-0.72598 -2.64191,-2.10074 -3.05543,-3.24171 -0.25899,-0.71464 0.27009,-1.62643 -0.12296,-2.27704 -0.45314,-0.75007 -1.72018,-0.74156 -2.15892,-1.50013 -0.71108,-1.22944 0.94303,-3.19896 -0.94397,-4.15491 0.74853,-2.12409 1.47792,-2.31042 -0.23203,-4.08481 -0.61761,-0.64089 -1.79534,-0.75243 -2.16581,-1.56171 -0.30597,-0.6684 0.49643,-1.42158 0.46394,-2.15597 -0.0302,-0.68384 -0.43037,-1.29961 -0.64556,-1.94942 0.0203,-0.69932 0.0407,-1.39864 0.061,-2.09796 1.67745,-4.1352 0.94965,-0.423 -0.85325,-4.13285 -1.49789,-3.08222 0.87674,-1.26237 0.58979,-4.33236 -0.075,-0.80193 -1.01163,-1.31351 -1.20189,-2.09614 -0.17435,-0.71715 0.10356,-1.47245 0.15535,-2.20868 2.3523,-4.34196 0.67565,-0.106 0.75207,-4.42549 0.0136,-0.76629 0.33728,-1.49559 0.53229,-2.23679 0.1972,-0.74958 0.71946,-1.4629 0.64401,-2.23431 -0.0828,-0.84636 -1.14482,-1.45895 -1.08821,-2.30747 0.0583,-0.87419 0.9273,-1.48679 1.39095,-2.23019 -2.20045,-6.63143 0.11705,1.83835 -0.11295,-4.59869 -0.0131,-0.36565 -1.70313,-4.2337 -1.29869,-4.76731 0.87463,-1.15397 3.00245,-0.86345 3.82824,-2.05285 0.48377,-0.69678 -0.47026,-1.63002 -0.70539,-2.44503 -4.22354,-6.82671 -0.0689,1.22532 -1.11821,-5.05005 -0.43241,-2.58609 -2.94069,-2.55189 -0.20231,-5.03151 0.97533,-0.88317 3.00166,-0.63245 3.48328,-1.85691 0.39632,-1.0076 -1.10205,-1.86408 -1.65308,-2.79612 -1.10863,-1.09398 -2.67491,-1.866982 -3.32589,-3.281928 -1.38709,-3.014951 3.8317,-3.526907 4.6016,-3.988118 1.58801,-0.951299 2.46039,-2.595054 2.45566,-4.417245 -0.003,-1.042882 -0.39669,-2.047703 -0.59504,-3.071553 8.57528,-4.480097 -2.156,2.325576 1.78308,-5.132012 0.56244,-1.064831 2.82568,0.08532 3.49468,-0.915993 0.67543,-1.010933 -1.11665,-2.590718 -0.46568,-3.617579 0.59772,-0.942885 6.22024,-0.766902 6.79676,-0.774295 0.0406,-1.130451 -0.72399,-2.640176 0.12176,-3.391355 1.53264,-1.361255 4.31456,1.989087 5.35047,-1.113001 0.44346,-1.327971 -1.13704,-3.308332 -0.0575,-4.199785 1.52621,-1.260268 4.36033,3.332372 5.93416,0.210167 1.92075,0.01243 6.00221,0.556895 7.40257,-1.109919 0.70654,-0.840984 0.44857,-2.359451 1.33001,-3.014824 1.41215,-1.049965 3.85769,1.11764 5.27811,-0.104391 0.95575,0.225898 1.95369,0.317267 2.86724,0.677698 1.09954,0.433808 1.95421,1.877674 3.12036,1.684628 1.04008,-0.172172 0.86886,-2.377961 1.91375,-2.517973 2.69362,-0.360937 5.36544,0.886283 8.06716,1.18056 0.89339,0.09731 1.83018,0.232558 2.696,-0.0082 1.20461,-0.334975 2.23751,-1.116536 3.35627,-1.674804 1.60817,1.021921 3.053,2.14654 4.97809,2.548339 1.02798,0.214559 2.15727,-0.190751 3.1462,0.162507 0.94955,0.339191 1.54929,1.304087 2.41353,1.823501 0.85979,0.516739 1.81963,0.844976 2.72945,1.267465 0.85201,0.541002 1.70402,1.082006 2.55603,1.62301 10.07188,5.799439 -4.57567,-2.885398 4.94617,3.596738 0.91132,0.620397 2.06554,0.837935 2.94888,1.497578 0.8483,0.633492 1.44041,1.552128 2.16664,2.322531 3.05075,3.236265 1.66688,1.36892 3.88303,5.069914 0.79859,0.758759 1.93058,1.277763 2.39583,2.27628 0.94292,2.023684 -0.58997,4.695946 0.42552,6.684195 0.54669,1.070366 1.9308,1.462042 2.7145,2.373299 1.47738,1.717863 2.0737,4.081349 3.69101,5.707885 -0.5712,1.27966 -1.66475,2.43848 -1.71362,3.83899 -0.04,1.14712 1.04087,2.04926 1.47105,3.11341 0.52536,1.29959 1.87156,5.22903 1.73869,6.70079 -0.11436,1.26664 -1.28043,2.33154 -1.25495,3.60307 0.0251,1.25505 0.93141,2.33142 1.39713,3.49712 -3.25196,7.99362 -0.35774,-0.87182 -0.87532,7.16004 -0.65923,10.23065 -1.1639,-3.42699 -3.2412,6.85277 -0.25773,1.27541 0.51039,2.55184 0.76558,3.82775 -0.29658,1.19166 -0.59315,2.38333 -0.88969,3.57499 -5.12895,8.02211 0.39193,-1.5573 -2.72981,7.01637 -0.44207,1.21407 -1.40484,2.17859 -1.9494,3.35027 -0.53734,1.15614 -0.79399,2.4257 -1.28249,3.60332 -0.997,2.40354 -2.40763,4.62494 -3.19659,7.12188 -7.2636,5.73511 -0.24447,-0.74104 -4.84979,6.44816 -0.74882,1.16898 -1.98785,1.94446 -2.88308,3.0055 -0.8892,1.05392 -1.68039,2.18851 -2.45925,3.3264 -0.79606,1.16301 -1.2131,2.631 -2.26244,3.57186 -1.18607,1.06344 -2.81394,1.49414 -4.22091,2.24121 -1.1854,0.92034 -2.40571,1.79738 -3.5562,2.76101 -1.15278,0.96556 -2.07705,2.22029 -3.34888,3.02257 -1.3941,0.8794 -3.1701,1.04133 -4.54198,1.955 -1.28128,0.85333 -2.03131,2.35012 -3.27807,3.25315 -2.65749,1.92482 -6.07904,2.6126 -8.69956,4.6068 -6.80357,5.77469 -0.24762,1.15786 -9.05468,4.48616 -1.59435,0.60253 -2.99142,1.6362 -4.51725,2.39571 -1.56124,0.77714 -3.13991,1.52127 -4.74094,2.21274 -7.32863,3.16519 -2.85602,0.40132 -9.24199,5.1616 -6.91589,2.77289 -3.31339,1.67764 -10.82426,3.2301 -11.55784,4.03358 1.78709,1.14235 -10.11573,4.82199 -1.90959,0.59033 -3.94693,0.65777 -5.88783,1.13521 -1.90326,0.46818 -3.75301,1.13194 -5.62951,1.69791 -11.00055,4.51465 0.39916,0.36143 -11.59896,3.08427 -1.96014,0.44484 -3.80809,1.29281 -5.74053,1.84571 -1.97134,0.56402 -3.95414,1.1013 -5.96478,1.50332 -17.18178,3.43536 4.49704,-1.71139 -12.32491,2.43569 -20.83232,3.3727 7.9744,-1.52154 -12.31319,2.67028 -2.08008,0.42979 -4.21817,0.52055 -6.30876,0.89587 -2.03283,0.36495 -4.00886,1.02835 -6.05301,1.32341 -2.07167,0.29904 -4.18593,0.19523 -6.26297,0.45436 -1.94567,0.24273 -3.858644,0.69939 -5.787964,1.04908 -3.342984,1.13708 -6.691017,2.25933 -10.031598,3.40346 -1.514017,0.51854 -3.008918,1.09444 -4.535866,1.57357 -1.429324,0.4485 -3.01371,0.49046 -4.328721,1.208 -1.307708,0.71356 -1.955091,2.41482 -3.3358,2.9742 -1.263936,0.51206 -2.727352,0.0231 -4.091025,0.0347 -1.014251,0.64006 -2.088081,1.19424 -3.042753,1.92017 -0.908653,0.69094 -1.41733,2.03726 -2.524916,2.31349 -1.116944,0.27855 -2.204326,-0.98437 -3.34749,-0.84897 -4.110553,0.48688 -0.550677,5.22169 -3.196402,6.89246 0.0131,0.4385 -0.102309,0.90029 0.03928,1.31551 0.04168,0.12224 0.253053,-0.0661 0.364537,-0.13126 0.669158,-0.39134 1.598206,-0.55478 1.970845,-1.23453 1.169932,-2.13412 1.942062,-4.49471 2.4721,-6.87006 3.777376,-16.92823 6.217462,-13.03032 -6.138138,-17.19542 -0.617257,-0.22122 -1.442667,-0.15122 -1.851774,-0.66364 -0.305379,-0.3825 0.272778,-1.9354 0.156292,-1.46001 -0.282215,1.15177 -0.819065,2.32216 -0.655327,3.49664 0.05516,0.39562 0.865245,-0.0182 1.175374,0.23358 2.576227,2.09135 0.785828,2.08937 -1.324912,3.66639 0.839915,0.0265 1.693119,0.23077 2.519746,0.0796 0.909453,-0.16631 1.716577,-1.33745 2.582156,-1.01259 1.764956,0.66241 2.641902,2.81643 4.349906,3.61429 1.097987,0.5129 2.423063,0.0627 3.633804,0.11514 6.190983,0.26815 1.770298,0.26739 8.10369,0.11461 5.983965,-0.17591 2.92127,-0.26619 9.186235,0.32775 1.549413,-2.7e-4 3.083729,-0.30552 4.625597,-0.45829 1.46608,-0.43169 2.871935,-1.21668 4.39824,-1.29509 12.199174,-0.62667 -0.961536,2.77631 9.888704,-0.62334 1.5402,-0.43598 3.04116,-1.04782 4.62059,-1.30793 1.69173,-0.27861 3.42325,-0.19913 5.13487,-0.2987 1.66921,-0.23996 3.3466,-0.42858 5.00762,-0.71988 1.64965,-0.2893 3.29805,-0.60217 4.91964,-1.0211 1.60258,-0.41402 3.10749,-1.21095 4.74151,-1.47482 1.79319,-0.28956 3.63107,-0.11357 5.4466,-0.17036 13.20697,-1.42202 -1.95444,1.26015 9.12205,-4.00371 1.59371,-0.75738 3.50152,-0.47391 5.22312,-0.86075 1.6732,-0.37596 3.31965,-0.87334 4.94385,-1.42375 9.27229,-3.14222 0.0131,-0.80345 9.8877,-2.99964 16.13092,-8.03492 -6.86719,3.80013 8.38629,-5.30263 7.75932,-4.6305 1.34345,0.40447 9.79772,-3.19036 1.49562,-0.63595 2.59126,-1.98996 4.03356,-2.73901 1.49491,-0.77638 3.14629,-1.20455 4.71944,-1.80682 3.05085,-2.67636 3.99797,-3.72759 7.4457,-5.88024 1.33725,-0.83493 2.88243,-1.33124 4.14961,-2.26911 1.20779,-0.89391 2.10765,-2.14333 3.20259,-3.17239 2.93986,-2.76297 3.53994,-3.12641 6.68998,-5.61055 0.6647,-0.7354 4.77253,-5.33812 5.5888,-6.01525 1.02504,-0.85032 2.38541,-1.25871 3.35084,-2.17614 0.8776,-0.83396 1.3987,-1.97668 2.07555,-2.98044 2.32493,-3.44781 1.55555,-2.04361 2.94968,-5.8384 -0.0146,-1.06527 -0.1611,-2.13691 -0.0438,-3.1958 0.0802,-0.72398 0.68766,-1.36652 0.62944,-2.0926 -0.0584,-0.72789 -0.54006,-1.37075 -0.9553,-1.97142 -0.25038,-0.3622 -1.4426,-0.85756 -1.0023,-0.86041 4.15972,-0.0269 3.64164,0.24952 2.64954,1.33314 0.21243,0.27191 0.53918,0.48492 0.63729,0.81573 0.18943,0.63878 -1.04961,3.41597 1.62831,-0.14715 0.23439,-0.31187 -0.7407,0.50233 -1.10906,0.37386 -1.09385,-0.38151 -0.7095,-2.87436 -1.51214,-3.12923 -2.47028,-0.70468 -2.33445,-0.4623 -4.60845,-2.04171 -1.71341,-1.19005 -3.79401,-3.24691 -5.64743,-4.19981 -1.1602,-0.5965 -2.45066,-0.89607 -3.68562,-1.31647 -1.32751,-0.45191 -2.66733,-0.86679 -4.00099,-1.30018 -13.55572,-0.6076 4.34836,0.66663 -9.06024,-1.85364 -1.65844,-0.31172 -3.38118,0.0266 -5.06054,-0.13882 -1.67704,-0.16515 -3.29999,-0.77449 -4.98343,-0.85031 -1.82185,-0.082 -3.63934,0.51709 -5.45788,0.38006 -1.74063,-0.13117 -3.40198,-0.78391 -5.10297,-1.17587 -1.80248,-0.004 -9.38782,-0.0317 -11.15927,0.009 -1.92196,0.0438 -3.84161,0.31789 -5.76245,0.23884 -1.86593,-0.0768 -3.70059,-0.51099 -5.55802,-0.70475 -12.10441,-1.2627 0.71203,0.43505 -11.33538,-1.26555 -2.14266,0.55196 -4.21553,1.62852 -6.42797,1.65588 -1.90027,0.0235 -3.63177,-1.15002 -5.4981,-1.50834 -5.22221,-1.00263 -6.32222,-0.47321 -11.61033,-0.78502 -1.87875,-0.11078 -3.74384,-0.39295 -5.61986,-0.54292 -1.85191,-0.14804 -3.70827,-0.23399 -5.5624,-0.35099 -13.487215,0.38199 1.62621,0.66353 -10.29752,-1.59585 -1.717138,-0.32537 -3.494931,-0.0642 -5.241626,-0.12321 -1.689314,-0.0571 -3.388735,-0.0144 -5.065842,-0.22505 -1.527442,-0.19181 -2.974313,-1.00038 -4.513588,-0.97793 -1.935887,0.0282 -3.798609,0.75125 -5.697913,1.12688 -1.364811,-0.44987 -2.735135,-0.88335 -4.094435,-1.34961 -1.316963,-0.45173 -2.597745,-1.01233 -3.933753,-1.40418 -1.386338,-0.40662 -2.966998,-0.26861 -4.220245,-0.98739 -1.084537,-0.62201 -1.335614,-2.27458 -2.451256,-2.83891 -9.368491,-4.73884 -0.681143,3.38516 -6.989688,-3.2804 -14.50181,-7.35032 6.992575,4.91752 -2.868549,-5.93258 -1.206953,-1.328 -3.673877,-0.21437 -5.291537,-0.99122 -4.010149,-1.9258 -1.78077,-3.20258 -2.223413,-6.36526 -0.152545,-1.08994 -0.778425,-2.05889 -1.167638,-3.08834 -0.23169,-3.14901 -0.705974,-6.36956 -0.593058,-9.5324 0.03986,-1.11654 -0.20342,-2.34988 0.32113,-3.33634 0.60161,-1.13137 1.889371,-1.73148 2.834058,-2.59722 0.439404,-0.93103 0.878811,-1.86206 1.318215,-2.79309 0.582731,-6.09954 -0.771806,-0.73011 3.273023,-5.15525 2.810922,-3.075217 0.0581,-2.56672 1.891789,-6.181619 1.195679,-2.357138 3.673742,-2.928466 5.831742,-3.861681 1.845728,-1.385752 3.769683,-2.668246 5.576596,-4.104245 0.925582,-0.735584 1.614525,-1.804755 2.673128,-2.331199 1.186482,-0.590037 2.613242,-0.492533 3.867068,-0.921245 6.385309,-2.183286 0.189516,-1.58801 7.946848,-1.525828 6.626214,-5.504505 -1.521857,0.107156 7.756961,-1.977824 1.264952,-0.284239 2.042205,-1.617136 3.177818,-2.242656 1.171649,-0.645372 2.466115,-1.037037 3.702621,-1.547251 5.162894,-2.130349 2.494992,-1.524659 8.483784,-1.59175 1.26244,-0.578138 2.49529,-1.225809 3.7873,-1.734417 1.57885,-0.62152 6.59424,-2.155148 8.21564,-2.584353 1.42276,-0.376621 2.90805,-0.526055 4.29874,-1.007803 1.35722,-0.470154 2.51823,-1.440309 3.90004,-1.832335 1.47763,-0.419208 3.04819,-0.380862 4.57229,-0.571293 7.90866,-2.746759 0.25929,-0.51897 8.94235,-1.706769 1.50251,-0.205534 2.96049,-0.659373 4.43834,-0.999538 4.39362,-1.011298 8.88237,-1.809853 12.81176,-4.161596 1.51035,-0.264748 3.05379,-0.383162 4.53104,-0.794243 2.38616,-0.664006 5.75968,-2.596512 8.2337,-3.028838 1.54629,-0.270211 3.20437,0.328906 4.70756,-0.123262 11.50267,-3.460054 -4.99543,-2.036712 8.12027,-2.537669 1.34289,-0.383026 2.71264,-0.682 4.02866,-1.14908 1.28026,-0.454393 2.40617,-1.374611 3.74419,-1.609664 4.4577,-0.78309 4.34076,1.309616 8.57323,-0.541975 1.21736,-0.532561 1.87403,-2.06357 3.1459,-2.448182 1.37585,-0.416052 2.87185,0.129471 4.30778,0.194207 0.77401,-1.284224 1.03038,-3.091108 2.32203,-3.852677 1.17089,-0.690378 2.74627,0.35665 4.07704,0.0797 1.16346,-0.242131 2.03857,-1.297863 3.18997,-1.592051 1.20782,-0.308605 2.53892,0.171643 3.73566,-0.177475 2.41923,-0.705741 3.7049,-2.670066 5.2604,-4.414993 1.27688,0.275987 2.52696,0.911757 3.83064,0.827966 2.72893,-0.175398 2.85038,-2.130113 5.19571,-2.960407 0.93974,-0.33269 2.07563,0.202562 2.98332,-0.209611 8.9566,-4.067082 -4.55002,-0.646615 4.63757,-2.6396 5.36235,0.797875 0.66406,0.990809 4.2145,-2.182823 0.54005,-0.48274 1.43546,-0.268369 2.10151,-0.553109 0.61582,-0.263265 1.03663,-0.975735 1.69943,-1.071813 0.71042,-0.102982 1.37723,0.614516 2.08917,0.522626 0.54956,-0.07093 0.90153,-0.644536 1.35229,-0.966806 0.65776,0.42327 1.21032,1.442183 1.97327,1.269807 1.59344,-0.360011 -0.055,-3.573974 1.03577,-4.790107 0.29472,-0.328606 2.70212,2.480823 2.8208,2.362906 0.66171,-0.657473 0.0275,-1.865415 0.0413,-2.798122 0.28065,0.0069 0.62191,-0.153566 0.84197,0.02077 0.44615,0.353451 0.94531,1.978578 0.96363,1.409684 0.0483,-1.499935 -0.72091,-2.924301 -0.86679,-4.417905 -0.0785,-0.80358 0.98371,2.384094 0.62453,2.431776 0,0 11.45051,33.392845 11.45051,33.392845 z"
       inkscape:connector-curvature="0" />
  </g>
</svg>
