<?xml version="1.0" encoding="UTF-8" standalone="no"?>
<!-- Created with Inkscape (http://www.inkscape.org/) -->

<svg
   xmlns:dc="http://purl.org/dc/elements/1.1/"
   xmlns:cc="http://creativecommons.org/ns#"
   xmlns:rdf="http://www.w3.org/1999/02/22-rdf-syntax-ns#"
   xmlns:svg="http://www.w3.org/2000/svg"
   xmlns="http://www.w3.org/2000/svg"
   xmlns:sodipodi="http://sodipodi.sourceforge.net/DTD/sodipodi-0.dtd"
   xmlns:inkscape="http://www.inkscape.org/namespaces/inkscape"
   width="210mm"
   height="297mm"
   viewBox="0 0 210 297"
   version="1.1"
   id="svg8"
   inkscape:version="0.92.1 r"
   sodipodi:docname="item02.svg">
  <defs
     id="defs2" />
  <sodipodi:namedview
     id="base"
     pagecolor="#ffffff"
     bordercolor="#666666"
     borderopacity="1.0"
     inkscape:pageopacity="0.0"
     inkscape:pageshadow="2"
     inkscape:zoom="0.35"
     inkscape:cx="400"
     inkscape:cy="560"
     inkscape:document-units="mm"
     inkscape:current-layer="layer1"
     showgrid="false"
     inkscape:window-width="1280"
     inkscape:window-height="746"
     inkscape:window-x="0"
     inkscape:window-y="26"
     inkscape:window-maximized="1" />
  <metadata
     id="metadata5">
    <rdf:RDF>
      <cc:Work
         rdf:about="">
        <dc:format>image/svg+xml</dc:format>
        <dc:type
           rdf:resource="http://purl.org/dc/dcmitype/StillImage" />
        <dc:title />
      </cc:Work>
    </rdf:RDF>
  </metadata>
  <g
     inkscape:label="Layer 1"
     inkscape:groupmode="layer"
     id="layer1">
    <path
       style="fill:#eea48a;fill-opacity:0.98421056;stroke-width:0.26458332"
       id="path897"
       d="m 14.570542,115.5853 c -0.223452,-0.088 -0.446904,-0.17605 -0.670357,-0.26408 -5.5894099,-28.441193 23.140531,-34.087351 28.729942,-5.64616 v 0 c -0.0028,0.85026 -0.0055,1.70052 -0.0083,2.55078 3.325696,27.7694 -24.725628,31.12886 -28.051324,3.35946 z"
       inkscape:connector-curvature="0" />
    <path
       inkscape:connector-curvature="0"
       d="m 61.811345,144.13571 c 0.160456,-0.0763 0.320956,-0.15263 0.481442,-0.22893 18.197719,11.34826 6.734248,29.73073 -11.463473,18.38247 v 0 c -0.458171,-0.43112 -0.916409,-0.86216 -1.374648,-1.29321 -16.690867,-12.23248 -4.334197,-29.0928 12.35667,-16.86032 z"
       id="path1091"
       style="fill:#eea48a;fill-opacity:0.98421056;stroke-width:0.19576564"
       inkscape:spray-origin="#path897" />
    <path
       inkscape:connector-curvature="0"
       d="m 76.800428,109.48161 c -0.09917,-0.15633 -0.198266,-0.31275 -0.297394,-0.46914 9.447262,-20.250821 29.903676,-10.707647 20.456419,9.54317 v 0 c -0.38826,0.52816 -0.776353,1.05643 -1.164613,1.58459 -10.551507,18.80354 -29.545945,8.14491 -18.994438,-10.65863 z"
       id="path1093"
       style="fill:#eea48a;fill-opacity:0.98421056;stroke-width:0.20397966"
       inkscape:spray-origin="#path897" />
    <path
       inkscape:connector-curvature="0"
       d="m 92.459089,87.217539 c 0.02315,-0.16575 0.04639,-0.33152 0.06959,-0.49728 18.359131,-8.426056 26.870731,10.11946 8.511611,18.545511 v 0 c -0.57658,0.13674 -1.15311,0.27367 -1.729691,0.41041 -18.273158,6.78267 -25.12469,-11.676011 -6.851522,-18.458681 z"
       id="path1095"
       style="fill:#eea48a;fill-opacity:0.98421056;stroke-width:0.18439354"
       inkscape:spray-origin="#path897" />
    <path
       inkscape:connector-curvature="0"
       d="m -58.791655,107.2095 c -0.116517,0.27075 -0.233094,0.54149 -0.349641,0.81224 -35.104307,5.7673 -40.930164,-29.693387 -5.825866,-35.460697 v 0 c 1.042955,0.03597 2.085901,0.07194 3.128846,0.107898 34.193473,-3.01603 37.240122,31.524579 3.046659,34.540609 z"
       id="path1097"
       style="fill:#eea48a;fill-opacity:0.98421056;stroke-width:0.3247354"
       inkscape:spray-origin="#path897" />
    <path
       inkscape:connector-curvature="0"
       d="m 32.726631,239.55074 c 0.256748,0.11045 0.513494,0.22097 0.770242,0.33146 5.472353,33.28697 -28.1525676,38.81488 -33.62492063,5.52791 v 0 c 0.03408,-0.98898 0.06796,-1.97795 0.102037,-2.96693 C -2.889384,210.01963 29.863342,207.12719 32.726717,239.55074 Z"
       id="path1099"
       style="fill:#eea48a;fill-opacity:0.98421056;stroke-width:0.3079294"
       inkscape:spray-origin="#path897" />
    <path
       inkscape:connector-curvature="0"
       d="m 28.008351,115.83753 c 0.175646,-0.0616 0.351324,-0.12314 0.526991,-0.18471 17.687165,13.85064 3.695904,31.71738 -13.991266,17.86674 v 0 C 14.114991,133.0194 13.685824,132.5193 13.256663,132.0192 -2.7623739,117.41577 11.989311,101.23411 28.008351,115.83753 Z"
       id="path1101"
       style="fill:#eea48a;fill-opacity:0.98421056;stroke-width:0.20506535"
       inkscape:spray-origin="#path897" />
    <path
       inkscape:connector-curvature="0"
       d="m -85.652646,226.97937 c -0.04873,0.19008 -0.09751,0.38016 -0.146265,0.57024 -22.493599,7.41011 -29.978949,-15.31184 -7.485358,-22.72196 v 0 c 0.689655,-0.0838 1.379288,-0.16764 2.068943,-0.2514 22.178015,-5.50678 27.740702,16.8964 5.562687,22.40317 z"
       id="path1103"
       style="fill:#eea48a;fill-opacity:0.98421056;stroke-width:0.21618101"
       inkscape:spray-origin="#path897" />
    <path
       inkscape:connector-curvature="0"
       d="m 15.155242,66.2737 c 0.301762,-0.09686 0.603562,-0.193668 0.905351,-0.290495 29.476595,24.377411 4.851695,54.153275 -24.6248954,29.775861 v 0 c -0.707685,-0.87075 -1.415447,-1.74145 -2.1231706,-2.61217 C -37.29062,67.563866 -11.447868,40.69064 15.155279,66.273669 Z"
       id="path1105"
       style="fill:#eea48a;fill-opacity:0.98421056;stroke-width:0.34916201"
       inkscape:spray-origin="#path897" />
    <path
       inkscape:connector-curvature="0"
       d="m 65.721829,68.15909 c 0.0041,-0.24738 0.0082,-0.49476 0.01224,-0.74214 25.412335,-15.67945 41.250971,9.99088 15.838634,25.67033 v 0 C 80.751537,93.39212 79.930396,93.69706 79.10922,94.00191 53.526049,107.25479 40.138625,81.41189 65.721796,68.15901 Z"
       id="path1107"
       style="fill:#eea48a;fill-opacity:0.98421056;stroke-width:0.27257034"
       inkscape:spray-origin="#path897" />
    <path
       inkscape:connector-curvature="0"
       d="m 33.585803,137.76912 c 0.238473,-0.0926 0.47705,-0.1851 0.715578,-0.27765 24.926285,18.2252 6.516049,43.40455 -18.410233,25.17935 v 0 c -0.612174,-0.66763 -1.224421,-1.33519 -1.836662,-2.00274 -22.6688191,-19.33503 -3.137495,-42.23397 19.531317,-22.89896 z"
       id="path1109"
       style="fill:#eea48a;fill-opacity:0.98421056;stroke-width:0.281865"
       inkscape:spray-origin="#path897" />
    <path
       inkscape:connector-curvature="0"
       d="m -79.687982,143.35101 c 0.07947,-0.17936 0.15895,-0.35872 0.23842,-0.53808 23.402648,-3.59013 27.029236,20.0501 3.626595,23.64024 v 0 c -0.693826,-0.0313 -1.387656,-0.0626 -2.081482,-0.0939 -22.777041,1.76558 -24.560571,-21.24271 -1.783531,-23.00831 z"
       id="path1111"
       style="fill:#eea48a;fill-opacity:0.98421056;stroke-width:0.21612345"
       inkscape:spray-origin="#path897" />
    <path
       inkscape:connector-curvature="0"
       d="m -24.073143,126.82754 c -0.03207,0.27023 -0.06424,0.54049 -0.09637,0.81074 -29.561151,14.31663 -44.023131,-15.54464 -14.461977,-29.86127 v 0 c 0.932678,-0.241772 1.865306,-0.483737 2.797984,-0.725508 29.4768143,-11.642185 41.2371873,18.133888 11.760373,29.776068 z"
       id="path1113"
       style="fill:#eea48a;fill-opacity:0.98421056;stroke-width:0.29982093"
       inkscape:spray-origin="#path897" />
    <path
       inkscape:connector-curvature="0"
       d="m 113.59021,115.50876 c 0.20752,-0.2312 0.4151,-0.46237 0.62265,-0.69356 37.00323,6.05723 30.88452,43.43613 -6.11871,37.37891 v 0 c -1.02957,-0.38704 -2.05918,-0.77398 -3.08873,-1.16106 -35.167314,-8.49854 -26.582502,-44.02288 8.58481,-35.52434 z"
       id="path1115"
       style="fill:#eea48a;fill-opacity:0.98421056;stroke-width:0.342269"
       inkscape:spray-origin="#path897" />
    <path
       inkscape:connector-curvature="0"
       d="m -73.173754,170.60208 c -0.274328,0.033 -0.548685,0.066 -0.823029,0.099 -21.203343,-25.74009 4.798079,-47.1587 26.00142,-21.41862 v 0 c 0.46189,0.86236 0.923869,1.72467 1.385759,2.58703 18.544307,26.29717 -8.019844,45.02974 -26.564146,18.73258 z"
       id="path1117"
       style="fill:#eea48a;fill-opacity:0.98421056;stroke-width:0.30441391"
       inkscape:spray-origin="#path897" />
    <path
       inkscape:connector-curvature="0"
       d="m 105.10921,99.961878 c -0.16219,0.0148 -0.32438,0.0296 -0.48657,0.0443 -12.054871,-15.525422 3.62816,-27.702672 15.68303,-12.177252 v 0 c 0.25746,0.51592 0.51501,1.03179 0.77248,1.54772 10.47879,15.808442 -5.49014,26.393612 -15.96893,10.58518 z"
       id="path1119"
       style="fill:#eea48a;fill-opacity:0.98421056;stroke-width:0.17942418"
       inkscape:spray-origin="#path897" />
    <path
       inkscape:connector-curvature="0"
       d="m 47.172877,152.4438 c -0.157658,-0.15618 -0.31528,-0.31244 -0.472919,-0.46867 5.624393,-26.18796 32.078227,-20.50647 26.453834,5.68149 v 0 c -0.312417,0.72095 -0.624742,1.44193 -0.937159,2.16287 -7.301599,24.79212 -32.345412,17.4164 -25.043817,-7.37572 z"
       id="path1121"
       style="fill:#eea48a;fill-opacity:0.98421056;stroke-width:0.24450041"
       inkscape:spray-origin="#path897" />
    <path
       inkscape:connector-curvature="0"
       d="m -10.076865,125.74363 c 0.1628272,0.15962 0.3256782,0.31919 0.4885172,0.47878 -5.6286132,26.93566 -32.8377322,21.2499 -27.2091212,-5.68575 v 0 c 0.316868,-0.74243 0.633549,-1.48492 0.950413,-2.22733 7.359617,-25.511253 33.1298572,-18.07692 25.770243,7.43433 z"
       id="path1123"
       style="fill:#eea48a;fill-opacity:0.98421056;stroke-width:0.25118533"
       inkscape:spray-origin="#path897" />
    <path
       inkscape:connector-curvature="0"
       d="m 99.406599,164.49369 c -0.219306,0.0852 -0.438661,0.1703 -0.657996,0.25545 -22.925107,-16.75559 -5.999398,-39.91346 16.925717,-23.15785 v 0 c 0.5631,0.6138 1.1262,1.22759 1.68931,1.8414 20.84933,17.77655 2.89231,38.83757 -17.957036,21.061 z"
       id="path1125"
       style="fill:#eea48a;fill-opacity:0.98421056;stroke-width:0.25920126"
       inkscape:spray-origin="#path897" />
    <path
       inkscape:connector-curvature="0"
       d="m -79.826829,111.65778 c -0.158497,-0.0148 -0.317025,-0.0298 -0.475537,-0.0447 -8.798611,-17.08204 8.456848,-25.96998 17.255461,-8.88794 v 0 c 0.154801,0.54198 0.309795,1.0839 0.4646,1.62589 7.233299,17.07123 -10.011246,24.37797 -17.244546,7.30673 z"
       id="path1127"
       style="fill:#eea48a;fill-opacity:0.98421056;stroke-width:0.17539753"
       inkscape:spray-origin="#path897" />
    <path
       inkscape:connector-curvature="0"
       d="m 66.514522,195.14469 c 0.118057,0.19138 0.236097,0.38278 0.354137,0.57418 -11.775464,24.45128 -36.47499,12.55627 -24.699527,-11.89502 v 0 c 0.479335,-0.63562 0.958675,-1.27126 1.438009,-1.90688 13.09482,-22.67721 36.002252,-9.44944 22.907433,13.22776 z"
       id="path1129"
       style="fill:#eea48a;fill-opacity:0.98421056;stroke-width:0.24773091"
       inkscape:spray-origin="#path897" />
    <path
       inkscape:connector-curvature="0"
       d="m -8.4932402,54.20369 c 0.126356,-0.225367 0.252712,-0.450735 0.379068,-0.676103 31.1295692,-1.817756 32.9657822,29.627857 1.836218,31.445617 v 0 c -0.905902,-0.12675 -1.811817,-0.25339 -2.717719,-0.38013 -30.0839778,-0.49738 -29.5815438,-30.88678 0.502434,-30.389396 z"
       id="path1131"
       style="fill:#eea48a;fill-opacity:0.98421056;stroke-width:0.28464144"
       inkscape:spray-origin="#path897" />
    <path
       inkscape:connector-curvature="0"
       d="m -19.332364,207.47856 c -0.217662,-0.20899 -0.435301,-0.41803 -0.65295,-0.62705 7.086936,-35.72286 43.172476,-28.56398 36.085541,7.15888 v 0 c -0.409301,0.98682 -0.818506,1.97367 -1.227835,2.96048 -9.3969284,33.86104 -43.601731,24.36871 -34.204803,-9.49233 z"
       id="path1133"
       style="fill:#eea48a;fill-opacity:0.98421056;stroke-width:0.33244097"
       inkscape:spray-origin="#path897" />
    <path
       inkscape:connector-curvature="0"
       d="m 82.395433,149.99867 c -0.159495,-0.0316 -0.318987,-0.0631 -0.478483,-0.0947 -7.167236,-18.26679 11.285017,-25.50679 18.45226,-7.23999 v 0 c 0.10109,0.56666 0.20229,1.13331 0.30339,1.69999 5.5781,18.09348 -12.699075,23.72821 -18.277175,5.63472 z"
       id="path1135"
       style="fill:#eea48a;fill-opacity:0.98421056;stroke-width:0.17911905"
       inkscape:spray-origin="#path897" />
    <path
       inkscape:connector-curvature="0"
       d="m -38.60013,92.199605 c 0.166449,0.23303 0.332861,0.46611 0.499289,0.69917 -12.862819,32.080185 -45.268692,19.086775 -32.405875,-12.9934 v 0 c 0.554479,-0.84884 1.108953,-1.69766 1.663432,-2.54649 14.691597,-29.939243 44.934793,-15.09849 30.243196,14.84075 z"
       id="path1137"
       style="fill:#eea48a;fill-opacity:0.98421056;stroke-width:0.31549704"
       inkscape:spray-origin="#path897" />
    <path
       inkscape:connector-curvature="0"
       d="m 45.824129,90.771543 c 0.03723,0.32465 0.0744,0.64933 0.111593,0.974 C 15.352979,116.64902 -9.8033287,85.755793 20.779409,60.852315 v 0 c 1.022939,-0.54046 2.04584,-1.081013 3.068774,-1.621482 31.223766,-21.755101 53.199726,9.78566 21.975969,31.54076 z"
       id="path1139"
       style="fill:#eea48a;fill-opacity:0.98421056;stroke-width:0.36001372"
       inkscape:spray-origin="#path897" />
    <path
       inkscape:connector-curvature="0"
       d="m -36.050289,74.538782 c -0.260827,-0.10322 -0.521654,-0.2065 -0.782483,-0.30976 -6.472884,-33.231222 27.0957127,-39.769824 33.5685977,-6.53861 v 0 c -0.005,0.99313 -0.0097,1.98625 -0.0147,2.97938 3.83010804,32.442108 -28.9413597,36.311088 -32.7714677,3.86899 z"
       id="path1141"
       style="fill:#eea48a;fill-opacity:0.98421056;stroke-width:0.3090426"
       inkscape:spray-origin="#path897" />
    <path
       inkscape:connector-curvature="0"
       d="m -30.713019,115.68009 c 0.242884,0.0323 0.48577,0.0646 0.728657,0.0969 12.518361,26.79117 -14.544801,39.43662 -27.063162,12.64545 v 0 c -0.20596,-0.84266 -0.412114,-1.68527 -0.618074,-2.52793 -10.111786,-26.681758 16.84086,-36.896208 26.952649,-10.21444 z"
       id="path1143"
       style="fill:#eea48a;fill-opacity:0.98421056;stroke-width:0.26993537"
       inkscape:spray-origin="#path897" />
    <path
       inkscape:connector-curvature="0"
       d="m -21.673368,177.37309 c -0.193792,0.0988 -0.387613,0.19751 -0.581427,0.29625 -22.646854,-13.27675 -9.235309,-36.15352 13.4115406,-22.87678 v 0 c 0.575104,0.51214 1.150202,1.02427 1.725306,1.53641 20.8326434,14.40913 6.27721795,35.45328 -14.5554316,21.04414 z"
       id="path1145"
       style="fill:#eea48a;fill-opacity:0.98421056;stroke-width:0.23963122"
       inkscape:spray-origin="#path897" />
    <path
       inkscape:connector-curvature="0"
       d="m 112.16892,206.47234 c 0.12027,0.18736 0.24055,0.37471 0.36082,0.56208 -11.22061,24.41535 -35.88384,13.08083 -24.663234,-11.33452 v 0 c 0.46319,-0.63778 0.926299,-1.27561 1.389489,-1.91338 12.558345,-22.68268 35.471305,-9.99684 22.912955,12.68584 z"
       id="path1147"
       style="fill:#eea48a;fill-opacity:0.98421056;stroke-width:0.24527764"
       inkscape:spray-origin="#path897" />
    <path
       inkscape:connector-curvature="0"
       d="m 131.20236,121.74811 c 0.16185,0.0518 0.32371,0.10352 0.48557,0.15528 5.26828,19.82077 -14.75371,25.14254 -20.02199,5.32177 v 0 c -0.0375,-0.60044 -0.0752,-1.20088 -0.11268,-1.80133 -3.63879,-19.45166 16.01036,-23.1274 19.64915,-3.67573 z"
       id="path1149"
       style="fill:#eea48a;fill-opacity:0.98421056;stroke-width:0.18721019"
       inkscape:spray-origin="#path897" />
    <path
       inkscape:connector-curvature="0"
       d="m 94.276495,107.45516 c -0.145166,0.24474 -0.290392,0.48948 -0.435598,0.73421 -34.324391,1.16274 -35.498933,-33.510132 -1.174536,-34.672868 v 0 c 0.994035,0.163954 1.988076,0.327807 2.982111,0.491761 33.110758,1.358193 31.738778,34.805097 -1.371978,33.446907 z"
       id="path1151"
       style="fill:#eea48a;fill-opacity:0.98421056;stroke-width:0.3135002"
       inkscape:spray-origin="#path897" />
    <path
       inkscape:connector-curvature="0"
       d="m 32.582589,188.94522 c -0.04847,0.22299 -0.09703,0.446 -0.145554,0.66901 -25.8255259,9.57619 -35.4989435,-16.51152 -9.673419,-26.08771 v 0 c 0.797949,-0.12689 1.595876,-0.25397 2.393835,-0.38086 25.540304,-7.35052 32.96546,18.44908 7.425146,25.7996 z"
       id="path1153"
       style="fill:#eea48a;fill-opacity:0.98421056;stroke-width:0.25142574"
       inkscape:spray-origin="#path897" />
    <path
       inkscape:connector-curvature="0"
       d="m -17.337083,127.74739 c -0.05718,0.2685 -0.114399,0.53701 -0.171608,0.80551 -31.015326,11.65388 -42.787518,-19.67633 -11.772195,-31.330203 v 0 c 0.959187,-0.156841 1.918357,-0.31378 2.877534,-0.470619 30.6838618,-8.975151 39.750129,22.020222 9.066278,30.995362 z"
       id="path1155"
       style="fill:#eea48a;fill-opacity:0.98421056;stroke-width:0.30244067"
       inkscape:spray-origin="#path897" />
    <path
       inkscape:connector-curvature="0"
       d="m 6.7230747,181.01373 c -0.03736,-0.22146 -0.0747,-0.44295 -0.112035,-0.66444 20.0842373,-18.20532 38.4743913,2.08282 18.3901573,20.28815 v 0 c -0.682426,0.40818 -1.364793,0.81644 -2.047271,1.22453 -20.6387733,16.06777 -36.869662,-4.78053 -16.2308893,-20.8483 z"
       id="path1157"
       style="fill:#eea48a;fill-opacity:0.98421056;stroke-width:0.24744207"
       inkscape:spray-origin="#path897" />
    <path
       inkscape:connector-curvature="0"
       d="m 42.606176,239.35152 c -0.05443,0.21282 -0.108887,0.42563 -0.163326,0.63845 -25.175014,8.31126 -33.5706569,-17.11934 -8.395647,-25.4306 v 0 c 0.771963,-0.0942 1.543911,-0.18868 2.315875,-0.28292 24.823107,-6.18035 31.066201,18.89476 6.243104,25.07512 z"
       id="path1159"
       style="fill:#eea48a;fill-opacity:0.98421056;stroke-width:0.24200243"
       inkscape:spray-origin="#path897" />
    <path
       inkscape:connector-curvature="0"
       d="m 20.083958,75.642767 c 0.148716,-0.174561 0.297546,-0.349082 0.446319,-0.523624 27.421322,3.767616 23.615458,31.467337 -3.805866,27.699717 v 0 c -0.767097,-0.26611 -1.534226,-0.53213 -2.301355,-0.79815 -26.11285,-5.604021 -20.4519438,-31.981969 5.660906,-26.377955 z"
       id="path1161"
       style="fill:#eea48a;fill-opacity:0.98421056;stroke-width:0.25265935"
       inkscape:spray-origin="#path897" />
    <path
       inkscape:connector-curvature="0"
       d="m -6.9629214,112.66655 c -0.29332,0.0303 -0.586667,0.0605 -0.880007,0.0907 C -30.000879,84.906489 -1.8673634,62.523578 20.290589,90.37434 v 0 c 0.477223,0.92855 0.954446,1.8571 1.431678,2.78565 19.310517,28.39694 -9.374717,47.9035 -28.6852304,19.50656 z"
       id="path1163"
       style="fill:#eea48a;fill-opacity:0.98421056;stroke-width:0.32487211"
       inkscape:spray-origin="#path897" />
    <path
       inkscape:connector-curvature="0"
       d="m 140.88206,149.67481 c 0.20029,-0.0423 0.40061,-0.0845 0.60092,-0.12679 17.3277,17.61204 -0.46314,35.11565 -17.79084,17.50362 v 0 c -0.39713,-0.60628 -0.79434,-1.21251 -1.19146,-1.81879 -15.40172,-18.19669 2.97971,-33.75476 18.38143,-15.55807 z"
       id="path1165"
       style="fill:#eea48a;fill-opacity:0.98421056;stroke-width:0.22553027"
       inkscape:spray-origin="#path897" />
    <path
       inkscape:connector-curvature="0"
       d="m -31.974583,142.05468 c -0.01224,0.16005 -0.02456,0.32013 -0.03684,0.4802 -17.070284,9.1653 -26.32863,-8.07829 -9.258353,-17.24358 v 0 c 0.543754,-0.16544 1.087468,-0.33097 1.631193,-0.4965 17.086381,-7.58697 24.750377,9.67288 7.663995,17.25985 z"
       id="path1167"
       style="fill:#eea48a;fill-opacity:0.98421056;stroke-width:0.17686069"
       inkscape:spray-origin="#path897" />
    <path
       inkscape:connector-curvature="0"
       d="m -33.531125,149.75848 c 0.127112,-0.18607 0.254204,-0.37215 0.381315,-0.55822 27.1837836,0.81483 26.3606806,28.2746 -0.82311,27.45977 v 0 c -0.777258,-0.17976 -1.554516,-0.35952 -2.331784,-0.53928 -26.097376,-2.74571 -23.323786,-29.10803 2.77359,-26.36232 z"
       id="path1169"
       style="fill:#eea48a;fill-opacity:0.98421056;stroke-width:0.24825092"
       inkscape:spray-origin="#path897" />
    <path
       inkscape:connector-curvature="0"
       d="m 124.58076,116.79589 c -0.18794,0.1991 -0.37593,0.39818 -0.5639,0.59726 -32.466303,-6.15513 -26.248686,-38.951045 6.21761,-32.795918 v 0 c 0.89849,0.363791 1.79702,0.727488 2.69551,1.091278 30.79482,8.265335 22.44557,39.3728 -8.34925,31.10746 z"
       id="path1171"
       style="fill:#eea48a;fill-opacity:0.98421056;stroke-width:0.30163831"
       inkscape:spray-origin="#path897" />
    <path
       inkscape:connector-curvature="0"
       d="m 1.6352915,38.642065 c -0.004,-0.1572 -0.008,-0.31445 -0.01199,-0.47167 15.7222645,-10.634962 26.4651995,5.24692 10.7429425,15.88188 v 0 c -0.513411,0.21552 -1.026812,0.43104 -1.540224,0.64656 -15.8953785,9.09836 -25.086111,-6.9584 -9.1907235,-16.05676 z"
       id="path1173"
       style="fill:#eea48a;fill-opacity:0.98421056;stroke-width:0.17326592"
       inkscape:spray-origin="#path897" />
    <path
       inkscape:connector-curvature="0"
       d="m 66.926261,104.3209 c -0.263296,-0.15337 -0.526583,-0.30682 -0.789874,-0.46025 -1.534242,-36.745079 35.583893,-38.294899 37.118143,-1.54981 v 0 c -0.16726,1.06579 -0.33431,2.13161 -0.5015,3.19741 -1.17541,35.46675 -37.002234,34.2794 -35.826816,-1.18735 z"
       id="path1175"
       style="fill:#eea48a;fill-opacity:0.98421056;stroke-width:0.3357093"
       inkscape:spray-origin="#path897" />
    <path
       inkscape:connector-curvature="0"
       d="m -9.1670287,186.20693 c 0.178108,-0.19387 0.356198,-0.38774 0.534298,-0.5816 31.2935917,5.49141 25.7464327,37.10271 -5.5471603,31.6113 v 0 c -0.868566,-0.33798 -1.737204,-0.67576 -2.60577,-1.01374 -29.714337,-7.54208 -22.095689,-37.55809 7.6186483,-30.01601 z"
       id="path1177"
       style="fill:#eea48a;fill-opacity:0.98421056;stroke-width:0.29001942"
       inkscape:spray-origin="#path897" />
    <path
       inkscape:connector-curvature="0"
       d="m 54.087335,127.45287 c -0.200675,-0.0726 -0.401353,-0.14529 -0.60203,-0.21794 -5.671131,-25.12536 19.709308,-30.854066 25.38044,-5.7287 v 0 c 0.01861,0.75534 0.03732,1.51069 0.05593,2.26604 3.64361,24.5848 -21.190788,28.26541 -24.834398,3.6806 z"
       id="path1179"
       style="fill:#eea48a;fill-opacity:0.98421056;stroke-width:0.23511936"
       inkscape:spray-origin="#path897" />
    <path
       inkscape:connector-curvature="0"
       d="m -29.686914,130.8408 c -0.271554,-0.0362 -0.543124,-0.0725 -0.814689,-0.10878 -13.981428,-29.96404 16.286815,-44.087415 30.26824275,-14.12339 v 0 c 0.229835,0.94235 0.459764,1.88465 0.689597,2.82699 11.29057925,29.84026 -18.85264275,41.24547 -30.14322475,11.4052 z"
       id="path1181"
       style="fill:#eea48a;fill-opacity:0.98421056;stroke-width:0.3018285"
       inkscape:spray-origin="#path897" />
    <path
       inkscape:connector-curvature="0"
       d="m 2.7368843,183.99239 c -0.148857,0.0337 -0.297765,0.0674 -0.44665,0.10103 -13.1091143,-12.9436 -0.03411,-26.1858 13.0750047,-13.2422 v 0 c 0.302618,0.44772 0.605324,0.8954 0.907948,1.34313 11.679501,13.4003 -1.856841,25.19837 -13.5363427,11.79807 z"
       id="path1183"
       style="fill:#eea48a;fill-opacity:0.98421056;stroke-width:0.16816379"
       inkscape:spray-origin="#path897" />
    <path
       inkscape:connector-curvature="0"
       d="m -16.098599,123.63602 c 0.241599,0.0903 0.4832,0.18063 0.724801,0.27096 6.5370295,30.43514 -24.207098,37.03854 -30.744129,6.6034 v 0 c -0.013,-0.91306 -0.02609,-1.82613 -0.03909,-2.7392 -4.093604,-29.756349 25.964845,-33.891514 30.058448,-4.13516 z"
       id="path1185"
       style="fill:#eea48a;fill-opacity:0.98421056;stroke-width:0.2841545"
       inkscape:spray-origin="#path897" />
    <path
       inkscape:connector-curvature="0"
       d="m -63.639853,159.23926 c -0.171715,-0.074 -0.343427,-0.14818 -0.515141,-0.22228 -3.640004,-22.27523 18.86138,-25.95219 22.501385,-3.67696 v 0 c -0.02343,0.66168 -0.04676,1.32337 -0.07019,1.98505 1.89494,21.69586 -20.021178,23.61004 -21.916118,1.91418 z"
       id="path1187"
       style="fill:#eea48a;fill-opacity:0.98421056;stroke-width:0.20603006"
       inkscape:spray-origin="#path897" />
    <path
       inkscape:connector-curvature="0"
       d="m -42.855631,63.137404 c -0.20399,-0.0255 -0.408006,-0.0511 -0.612012,-0.0767 -10.673257,-22.400707 11.954868,-33.182325 22.628125,-10.78163 v 0 c 0.178177,0.70575 0.356448,1.41147 0.534626,2.11722 8.653264,22.32412 -13.897502,31.06524 -22.550767,8.74112 z"
       id="path1189"
       style="fill:#eea48a;fill-opacity:0.98421056;stroke-width:0.226503"
       inkscape:spray-origin="#path897" />
    <path
       inkscape:connector-curvature="0"
       d="m 52.709166,197.83381 c -0.159619,-0.0886 -0.319236,-0.17719 -0.478854,-0.26578 -1.378845,-21.98917 20.833567,-23.38201 22.212412,-1.39284 v 0 c -0.08678,0.64045 -0.173559,1.2809 -0.26034,1.92136 -0.260098,21.25742 -21.733336,20.99468 -21.473238,-0.26275 z"
       id="path1191"
       style="fill:#eea48a;fill-opacity:0.98421056;stroke-width:0.20111609"
       inkscape:spray-origin="#path897" />
    <path
       inkscape:connector-curvature="0"
       d="m 107.9525,136.76146 c -0.0795,-0.17973 -0.15892,-0.35951 -0.23837,-0.53927 13.10289,-19.77158 33.0752,-6.53566 19.97231,13.23592 v 0 c -0.49063,0.49336 -0.98118,0.98679 -1.47181,1.48016 -14.03436,18.07861 -32.296516,3.90177 -18.26216,-14.17684 z"
       id="path1193"
       style="fill:#eea48a;fill-opacity:0.98421056;stroke-width:0.21651407"
       inkscape:spray-origin="#path897" />
    <path
       inkscape:connector-curvature="0"
       d="m 124.28983,103.35248 c -0.1451,0.0638 -0.29018,0.1276 -0.43527,0.19139 -15.9243,-10.597936 -5.21876,-26.683913 10.70554,-16.085966 v 0 c 0.39714,0.3964 0.79429,0.79281 1.19136,1.18928 14.55754,11.34648 3.09587,26.051806 -11.46167,14.705326 z"
       id="path1195"
       style="fill:#eea48a;fill-opacity:0.98421056;stroke-width:0.17460914"
       inkscape:spray-origin="#path897" />
    <path
       inkscape:connector-curvature="0"
       d="m -6.8612101,190.88151 c -0.125349,0.20036 -0.250746,0.4007 -0.376124,0.60106 -28.5228519,0.29005 -28.8158479,-28.52239 -0.292997,-28.81244 v 0 c 0.822121,0.15575 1.644279,0.31131 2.466401,0.46706 27.4655511,1.77923 25.6682581,29.52362 -1.797293,27.74439 z"
       id="path1197"
       style="fill:#eea48a;fill-opacity:0.98421056;stroke-width:0.26037619"
       inkscape:spray-origin="#path897" />
    <path
       inkscape:connector-curvature="0"
       d="m -25.39387,212.9806 c -0.117931,0.15226 -0.235843,0.30453 -0.353764,0.4568 -23.150018,-2.08044 -21.048456,-25.46549 2.101559,-23.38505 v 0 c 0.653963,0.19295 1.307917,0.3859 1.961852,0.57894 22.1247552,3.67239 18.4150872,26.02177 -3.709668,22.34938 z"
       id="path1199"
       style="fill:#eea48a;fill-opacity:0.98421056;stroke-width:0.21216996"
       inkscape:spray-origin="#path897" />
    <path
       inkscape:connector-curvature="0"
       d="m 59.239329,130.92673 c -0.100104,0.17123 -0.200198,0.34245 -0.300302,0.51368 -23.91758,0.96433 -24.891705,-23.19607 -0.974128,-24.16041 v 0 c 0.693544,0.10981 1.387093,0.21953 2.080622,0.32944 23.083032,0.7981 22.276828,24.11547 -0.806204,23.31737 z"
       id="path1201"
       style="fill:#eea48a;fill-opacity:0.98421056;stroke-width:0.21850221"
       inkscape:spray-origin="#path897" />
  </g>
</svg>
